<svg xmlns="http://www.w3.org/2000/svg" xmlns:xlink="http://www.w3.org/1999/xlink" width="21.969" height="18.458" viewBox="0 0 21.969 18.458">
  <defs>
    <filter id="Rectangle_Copy_2" x="0" y="0" width="21.969" height="18.458" filterUnits="userSpaceOnUse">
      <feOffset dx="1" input="SourceAlpha"/>
      <feGaussianBlur stdDeviation="0.5" result="blur"/>
      <feFlood flood-color="#dbdbdb"/>
      <feComposite operator="in" in2="blur"/>
      <feComposite in="SourceGraphic"/>
    </filter>
  </defs>
  <g transform="matrix(1, 0, 0, 1, 0, 0)" filter="url(#Rectangle_Copy_2)">
    <g id="Rectangle_Copy_2-2" data-name="Rectangle Copy 2" transform="translate(19.47 -31.04)" fill="#fff" stroke-miterlimit="10">
      <path d="M -16.12054634094238 46.38197326660156 C -15.61877346038818 45.89691925048828 -15.08097553253174 45.32180023193359 -14.54209327697754 44.65222930908203 C -12.76142501831055 42.43971633911133 -10.6589822769165 38.75881195068359 -10.41676616668701 33.54256057739258 C -9.44487190246582 34.29784774780273 -7.698177814483643 35.6682014465332 -5.942223072052002 37.11020660400391 C -2.808776617050171 39.68344116210938 -1.476121664047241 40.98236465454102 -0.909582793712616 41.62385177612305 C -1.166570544242859 41.52861785888672 -1.513557434082031 41.38475036621094 -1.979632973670959 41.16779708862305 L -2.171003103256226 41.07872009277344 L -2.368313074111938 41.15373992919922 L -16.12054634094238 46.38197326660156 Z" stroke="none"/>
      <path d="M -14.30996322631836 45.15871810913086 L -2.551029205322266 40.68828201293945 C -3.362263441085815 39.93628692626953 -4.583539962768555 38.86913681030273 -6.421463012695313 37.36381912231445 C -7.733991146087646 36.28881454467773 -9.028558731079102 35.26308059692383 -9.982447624206543 34.51569747924805 C -10.42441463470459 39.36544799804688 -12.43441009521484 42.83087158203125 -14.15257263183594 44.96571731567383 C -14.20507335662842 45.03094863891602 -14.25748825073242 45.09521102905273 -14.30996322631836 45.15871810913086 M -18.96952247619629 47.9999885559082 C -18.96952247619629 47.9999885559082 -10.89369297027588 43.38930892944336 -10.89369297027588 32.54198837280273 C -10.89369297027588 32.54198837280273 1.862624287605286 42.30797958374023 -0.2328798919916153 42.30797958374023 C -0.5392744541168213 42.30797958374023 -1.16289234161377 42.09950256347656 -2.190633058547974 41.62109756469727 L -18.96952247619629 47.9999885559082 Z" stroke="none" fill="#eb5a6d"/>
    </g>
  </g>
</svg>
